# xmcd
#
# Track frame offsets: 
#        150
#        17509
#        49188
#        79000
#        93018
#        110569
#        127576
#        146198
#        160283
#        174169
#        184732
#        198676
#        213896
#        225799
#        238415
#        270338
#        281938
#        289336
#        304683
#
# Disc length: 4236 seconds
#
# Revision: 0
# Processed by: cddbd v1.5.2PL0 Copyright (c) Steve Scherf et al.
# Submitted via: ExactAudioCopyFreeDBPlugin 1.0
#
DISCID=04108a13
DTITLE=Various Artist - Essential Blaxploitation CD3
DYEAR=2012
DGENRE=Funk
TTITLE0=Bobby Womack - Across 110th Street
TTITLE1=Linda Clifford - Runaway Love
TTITLE2=Joe Tex - Ain't Gonna Bump No More (With No Big Fat Woman)
TTITLE3=The Impressions - Make A Resolution
TTITLE4=Curtis Mayfield - Billy Jack
TTITLE5=The Notations - Superpeople
TTITLE6=Rasputin Stash - I Can Feel Your Love Jones
TTITLE7=The Impressions - Loving Power
TTITLE8=Alder Ray Black And The Fame Gang - Just Because The Package H
TTITLE8=as Been Unwrapped And Opened
TTITLE9=Prime Mates - Hot Tamales - Part 1
TTITLE10=Joe Tex - Skinny Legs And All
TTITLE11=Ironing Board Sam - Man Of The Street
TTITLE12=Ike Turner And The Kings Of Rhythm - Thinking Black
TTITLE13=Bobby Womack - Hang On In There - Instrumental
TTITLE14=Betty Davis - She's A Woman
TTITLE15=Bobby Franklin's Insanity - Bring It On Down To Me - Part 1
TTITLE16=Curtis Mayfield - Junkie Chase
TTITLE17=Moses Dillard and Tex-Town Display - I've Got To Find A Way (To
TTITLE17=Hide My Hurt) - Part 1
TTITLE18=Warren Lee - Mama Said We Can't Get Married
EXTD=
EXTT0=
EXTT1=
EXTT2=
EXTT3=
EXTT4=
EXTT5=
EXTT6=
EXTT7=
EXTT8=
EXTT9=
EXTT10=
EXTT11=
EXTT12=
EXTT13=
EXTT14=
EXTT15=
EXTT16=
EXTT17=
EXTT18=
PLAYORDER=
